<svg height="512" viewBox="0 0 511.38 511.38" width="512" xmlns="http://www.w3.org/2000/svg" fill="#718096">
  <path
    d="M122.119 386.918a7.5 7.5 0 00-10.245-2.745l-20.771 11.992V372.18c0-4.143-3.358-7.5-7.5-7.5s-7.5 3.357-7.5 7.5v23.985l-20.771-11.992a7.5 7.5 0 10-7.5 12.99l20.771 11.992-20.771 11.992a7.5 7.5 0 007.5 12.99l20.771-11.992v23.984c0 4.143 3.358 7.5 7.5 7.5s7.5-3.357 7.5-7.5v-23.984l20.771 11.992a7.497 7.497 0 0010.245-2.745 7.5 7.5 0 00-2.745-10.245l-20.771-11.992 20.771-11.992a7.5 7.5 0 002.745-10.245zM351.569 386.918a7.5 7.5 0 00-10.245-2.745l-20.771 11.992V372.18c0-4.143-3.358-7.5-7.5-7.5s-7.5 3.357-7.5 7.5v23.985l-20.771-11.992a7.5 7.5 0 10-7.5 12.99l20.771 11.992-20.771 11.992a7.5 7.5 0 007.5 12.99l20.771-11.992v23.984c0 4.143 3.358 7.5 7.5 7.5s7.5-3.357 7.5-7.5v-23.984l20.771 11.992a7.497 7.497 0 0010.245-2.745 7.5 7.5 0 00-2.745-10.245l-20.771-11.992 20.771-11.992a7.5 7.5 0 002.745-10.245zM236.844 386.918a7.5 7.5 0 00-10.245-2.745l-20.771 11.992V372.18c0-4.143-3.358-7.5-7.5-7.5s-7.5 3.357-7.5 7.5v23.985l-20.771-11.992a7.5 7.5 0 10-7.5 12.99l20.771 11.992-20.771 11.992a7.5 7.5 0 007.5 12.99l20.771-11.992v23.984c0 4.143 3.358 7.5 7.5 7.5s7.5-3.357 7.5-7.5v-23.984l20.771 11.992a7.497 7.497 0 0010.245-2.745 7.5 7.5 0 00-2.745-10.245l-20.771-11.992 20.771-11.992a7.5 7.5 0 002.745-10.245zM420.277 446.13c0 4.143 3.358 7.5 7.5 7.5s7.5-3.357 7.5-7.5v-23.984l20.771 11.992a7.497 7.497 0 0010.245-2.745 7.5 7.5 0 00-2.745-10.245l-20.771-11.992 20.771-11.992a7.5 7.5 0 00-7.5-12.99l-20.771 11.992V372.18c0-4.143-3.358-7.5-7.5-7.5s-7.5 3.357-7.5 7.5v23.985l-20.771-11.992a7.5 7.5 0 00-7.5 12.99l20.771 11.992-20.771 11.992a7.5 7.5 0 007.5 12.99l20.771-11.992z" />
  <path
    d="M479.67 319.98H31.71C14.225 319.98 0 334.205 0 351.69v106.5c0 17.485 14.225 31.71 31.71 31.71h350.07c4.142 0 7.5-3.357 7.5-7.5s-3.358-7.5-7.5-7.5H31.71c-9.214 0-16.71-7.496-16.71-16.71v-106.5c0-9.214 7.496-16.71 16.71-16.71h447.96c9.214 0 16.71 7.496 16.71 16.71v106.5c0 9.214-7.496 16.71-16.71 16.71h-62.89c-4.142 0-7.5 3.357-7.5 7.5s3.358 7.5 7.5 7.5h62.89c17.485 0 31.71-14.225 31.71-31.71v-106.5c0-17.485-14.225-31.71-31.71-31.71zM44.308 70.829a7.5 7.5 0 007.5 7.5h13.438v90.459c0 4.143 3.358 7.5 7.5 7.5s7.5-3.357 7.5-7.5V70.829a7.5 7.5 0 00-7.5-7.5H51.808a7.5 7.5 0 00-7.5 7.5zM319.521 76.996c-.53-6.364-4.251-11.523-9.479-13.143-2.466-.766-8.852-1.741-14.88 5.654-5.522 6.775-33.205 56.789-38.698 66.746a7.501 7.501 0 006.566 11.124h41.438c-.054 7.567-.111 14.863-.167 21.347a7.5 7.5 0 007.435 7.564h.066a7.5 7.5 0 007.498-7.436c.022-2.543.092-10.838.168-21.476h5.076c4.142 0 7.5-3.357 7.5-7.5s-3.358-7.5-7.5-7.5h-4.976c.149-24.19.246-51.852-.047-55.38zm-14.954 55.38h-28.802c10.484-18.822 23.425-41.645 28.904-50.281.098 8.524.026 29.081-.102 50.281zM158.009 100.42c.057-.246.102-.494.133-.744l.484-3.79c.041-.315.061-.633.061-.95 0-17.957-14.609-32.565-32.565-32.565-15.527 0-28.966 11.045-31.955 26.262a7.5 7.5 0 0014.719 2.891c1.611-8.2 8.859-14.152 17.236-14.152 9.54 0 17.329 7.645 17.56 17.13l-.367 2.879c-1.303 5.318-4.387 11.477-9.17 18.312-15.56 22.231-24.849 34.395-29.839 40.929-6 7.856-7.811 10.228-6.463 14.61.765 2.489 2.663 4.403 5.207 5.252.989.329 2.339.78 21.148.78 7.38 0 17.45-.069 31.237-.243a7.5 7.5 0 00-.093-14.999l-.096.001c-12.905.161-26.729.254-36.362.217 5.452-7.177 14.238-18.926 27.55-37.945 5.993-8.568 9.888-16.599 11.575-23.875zM209.185 162.44c-8.715 0-16.194-6.494-17.396-15.107a17.797 17.797 0 01-.17-2.458c0-4.143-3.358-7.5-7.5-7.5s-7.5 3.357-7.5 7.5c0 1.516.106 3.041.314 4.532 2.23 15.981 16.095 28.033 32.252 28.033 17.957 0 32.566-14.608 32.566-32.565 0-10.071-4.596-19.088-11.8-25.066 7.204-5.978 11.8-14.995 11.8-25.066 0-17.957-14.609-32.565-32.566-32.565-15.527 0-28.966 11.045-31.955 26.262a7.5 7.5 0 0014.719 2.891c1.61-8.2 8.859-14.152 17.236-14.152 9.686 0 17.566 7.88 17.566 17.565s-7.88 17.565-17.566 17.565c-4.142 0-7.5 3.357-7.5 7.5s3.358 7.5 7.5 7.5c9.686 0 17.566 7.88 17.566 17.566 0 9.685-7.88 17.565-17.566 17.565z" />
  <path
    d="M36.92 215.48h226.66a9.22 9.22 0 016.763 2.961l71.668 77.809c3.233 3.513 7.66 5.394 12.212 5.393 2.04 0 4.105-.378 6.099-1.155 6.444-2.514 10.608-8.608 10.608-15.527V52.98c0-17.369-14.131-31.5-31.5-31.5H96.63c-4.142 0-7.5 3.357-7.5 7.5s3.358 7.5 7.5 7.5h242.8c9.098 0 16.5 7.401 16.5 16.5v231.979c0 .756-.356 1.279-1.06 1.554-.698.273-1.313.132-1.824-.424l-71.671-77.812a24.26 24.26 0 00-17.795-7.798H36.92c-9.098 0-16.5-7.402-16.5-16.5v-131c0-9.099 7.402-16.5 16.5-16.5h24.71c4.142 0 7.5-3.357 7.5-7.5s-3.358-7.5-7.5-7.5H36.92c-17.369 0-31.5 14.131-31.5 31.5v131c0 17.37 14.131 31.501 31.5 31.501z" />
</svg>